<svg width="164" height="157" viewBox="0 0 164 157" fill="none" xmlns="http://www.w3.org/2000/svg">
<path d="M44.9736 45.9102H104.022V134.142H44.9736V45.9102Z" fill="#EBA824"/>
<path d="M44.9736 123.655H104.022V130.989H44.9736V123.655Z" fill="#EACC53"/>
<path d="M55.8589 71.7601H60.8401V125.92H55.8589V71.7601ZM72.1524 71.7601H77.1336V125.92H72.1524V71.7601ZM88.0615 71.7601H93.0427V125.92H88.0615V71.7601Z" fill="#EACC53"/>
<path d="M118.359 62.152H104.03V66.3487H112.754C115.915 66.3487 118.504 68.7079 118.504 71.5888V108.627C118.504 111.508 115.915 113.867 112.754 113.867H104.03V118.064H118.359C121.52 118.064 124.109 115.705 124.109 112.824V67.392C124.109 64.5112 121.52 62.152 118.359 62.152Z" fill="#6E4921"/>
<path d="M40.5049 35.2042C40.5049 35.2042 33.4134 46.0347 45.5887 49.5307C48.75 50.1458 55.2691 49.2659 59.1054 47.8722C60.9253 47.5219 65.428 46.2994 66.9659 50.6674C68.2133 52.505 73.2885 57.8307 77.3213 51.5395C78.5687 48.8299 79.6197 45.513 84.8914 46.0347C88.0527 46.4707 97.4084 49.5696 104.03 47.4751C104.056 52.7697 104.03 53.0811 104.03 53.0811C104.03 53.0811 112.745 51.9755 110.011 41.6667C109.148 38.9571 105.406 33.9818 99.177 34.0674C96.6822 33.281 94.6743 31.6226 93.1364 30.6571C91.4105 29.606 81.4396 24.4516 73.485 29.7851C70.9902 29.0376 68.9823 27.6439 63.7106 26.9898C59.3446 26.6473 48.5791 26.4059 40.5049 35.2042Z" fill="#F5ECDA"/>
<path d="M47.8872 35.8972C47.8872 35.8972 47.8958 35.8739 47.9214 35.8349C47.947 35.796 47.9726 35.7337 48.0239 35.6636C48.1179 35.5157 48.2546 35.3133 48.4511 35.0719C48.6476 34.8227 48.8954 34.5424 49.2115 34.231C49.2884 34.1531 49.3739 34.0753 49.4593 33.9974L49.7242 33.756C49.9121 33.5925 50.1087 33.4368 50.3223 33.2655C50.4248 33.1799 50.5444 33.102 50.6555 33.0241C50.7751 32.9463 50.8862 32.8606 51.0143 32.775C51.134 32.6893 51.2621 32.6193 51.3903 32.5336C51.5184 32.4558 51.6551 32.3701 51.7918 32.2923C52.0653 32.1365 52.3472 31.9808 52.6548 31.8407C52.9538 31.6927 53.27 31.5604 53.5861 31.428C53.7484 31.3579 53.9108 31.3034 54.0817 31.2411C54.2525 31.1866 54.4149 31.1165 54.5858 31.062C54.9361 30.9608 55.2864 30.844 55.6452 30.7662C55.8246 30.7195 56.0126 30.6805 56.192 30.6416C56.38 30.6027 56.5594 30.5715 56.7474 30.5404C57.1233 30.4703 57.4993 30.4314 57.8838 30.3847C58.2682 30.3457 58.6527 30.3301 59.0287 30.3146H60.0283L60.1736 30.3224C60.934 30.3613 61.6773 30.4547 62.3779 30.6027C62.5574 30.6416 62.7282 30.6805 62.8991 30.7195C62.9846 30.7428 63.07 30.7584 63.1555 30.7817C63.2409 30.8051 63.3263 30.8285 63.4032 30.8596C63.5656 30.9063 63.7279 30.9608 63.8902 31.0075C63.9671 31.0309 64.0526 31.0543 64.1295 31.0854C64.2064 31.1088 64.2833 31.1477 64.3602 31.171C64.514 31.2333 64.6592 31.2878 64.8045 31.3501C64.9497 31.4124 65.095 31.4591 65.2317 31.5292C65.5051 31.6694 65.7614 31.7939 66.0092 31.9263C66.069 31.9574 66.1288 31.9886 66.1886 32.0275C66.2484 32.0665 66.3082 32.0976 66.3595 32.1365C66.4705 32.2066 66.5816 32.2767 66.6842 32.3468C66.7867 32.4168 66.8892 32.4869 66.9917 32.5492C67.043 32.5803 67.0857 32.6115 67.137 32.6504C67.1797 32.6893 67.231 32.7205 67.2737 32.7594C67.4446 32.8996 67.6155 33.0241 67.7522 33.1565C67.8205 33.2188 67.8974 33.2811 67.9572 33.3356C68.0256 33.3901 68.0768 33.4602 68.1366 33.5147C68.2477 33.6315 68.3502 33.7327 68.4271 33.8261C68.5126 33.9196 68.5809 33.9974 68.6322 34.0597C68.6835 34.122 68.7262 34.1765 68.7518 34.2076C68.7774 34.2388 68.7945 34.2621 68.7945 34.2621L68.6749 34.4646C68.6749 34.4646 68.3673 34.3322 67.8291 34.0986C67.6923 34.0363 67.5386 33.9818 67.3762 33.9195C67.2139 33.8573 67.0259 33.795 66.8379 33.7249C66.65 33.647 66.4364 33.5925 66.2142 33.5225C66.1032 33.4913 65.9921 33.4524 65.881 33.4135C65.8212 33.3979 65.7614 33.3745 65.7101 33.3589L65.5307 33.3122C65.2829 33.2499 65.0351 33.1799 64.7703 33.1176C64.5054 33.0553 64.2235 33.0086 63.9415 32.9463C63.3691 32.8451 62.7624 32.7516 62.1302 32.6971C61.4979 32.6348 60.84 32.6037 60.1821 32.6037H60.054L59.9258 32.6115L59.678 32.6193C59.5071 32.6271 59.3448 32.6271 59.1739 32.6348C59.003 32.6504 58.8407 32.6582 58.6698 32.6738C58.4989 32.6893 58.3366 32.6971 58.1657 32.7205C57.8325 32.7594 57.4907 32.7906 57.1575 32.8451C56.9952 32.8684 56.8243 32.8918 56.662 32.9151C56.4996 32.9463 56.3373 32.9774 56.1664 33.0086C55.8417 33.0631 55.5171 33.1409 55.2009 33.211C55.0386 33.2499 54.8848 33.2889 54.731 33.3278C54.5772 33.3667 54.4234 33.4057 54.2696 33.4524C53.962 33.538 53.6715 33.6237 53.381 33.7171C53.2358 33.7638 53.0905 33.8028 52.9538 33.8495C52.8171 33.8962 52.6719 33.9429 52.5352 33.9896C52.3985 34.0363 52.2618 34.0831 52.1336 34.1376C52.0054 34.1843 51.8687 34.231 51.7491 34.2855C51.5013 34.3867 51.2536 34.4802 51.0229 34.5814C50.9118 34.6281 50.7922 34.6826 50.6811 34.7293C50.57 34.776 50.4675 34.8305 50.3564 34.8772C50.1428 34.9707 49.9549 35.0641 49.7669 35.1498C49.3995 35.3288 49.0834 35.4923 48.8271 35.6325C48.5707 35.7726 48.3742 35.8894 48.2461 35.9673C48.1777 36.0062 48.1264 36.0374 48.0923 36.0607C48.0581 36.0841 48.041 36.0919 48.041 36.0919L47.8872 35.8972Z" fill="white"/>
<path d="M27.8423 27.1742L135.923 130.55M158.307 78.8617C158.307 119.232 124.091 151.959 81.8826 151.959C39.6745 151.959 5.45801 119.232 5.45801 78.8617C5.45801 38.4912 39.6745 5.7644 81.8826 5.7644C124.091 5.7644 158.307 38.4912 158.307 78.8617Z" stroke="#EF3826" stroke-width="10" stroke-linecap="round"/>
</svg>
