<svg width="28" height="28" viewBox="0 0 28 28" fill="none" xmlns="http://www.w3.org/2000/svg">
<g clip-path="url(#clip0_206_4714)">
<path d="M18.6667 7L22.1667 11.6667H24.5C25.795 11.6667 26.8333 12.705 26.8333 14V17.5H24.5C24.5 19.4367 22.9367 21 21 21C19.0633 21 17.5 19.4367 17.5 17.5H10.5C10.5 19.4367 8.93667 21 7 21C5.06334 21 3.50001 19.4367 3.50001 17.5H1.16667V14C1.16667 12.705 2.20501 11.6667 3.50001 11.6667L7 7H18.6667ZM12.25 8.75H7.875L5.67001 11.6667H12.25V8.75ZM14 8.75V11.6667H19.9967L17.7917 8.75H14ZM7 15.75C6.03167 15.75 5.25 16.5317 5.25 17.5C5.25 18.4683 6.03167 19.25 7 19.25C7.96834 19.25 8.75 18.4683 8.75 17.5C8.75 16.5317 7.96834 15.75 7 15.75ZM21 15.75C20.0317 15.75 19.25 16.5317 19.25 17.5C19.25 18.4683 20.0317 19.25 21 19.25C21.9683 19.25 22.75 18.4683 22.75 17.5C22.75 16.5317 21.9683 15.75 21 15.75Z" fill="#202224"/>
</g>
<defs>
<clipPath id="clip0_206_4714">
<rect width="28" height="28" fill="white"/>
</clipPath>
</defs>
</svg>
