<svg width="135" height="169" viewBox="0 0 135 169" fill="none" xmlns="http://www.w3.org/2000/svg">
<path d="M39.967 28.4739C47.4438 28.4739 53.5069 22.102 53.5069 14.2382C53.5069 6.37447 47.4438 0 39.967 0C32.4847 0 26.4216 6.37447 26.4216 14.2382C26.4216 22.1017 32.4847 28.4739 39.967 28.4739Z" fill="black"/>
<path d="M109.361 43.6047V43.3238C109.361 39.1057 106.111 35.6887 102.1 35.6887H41.0989C26.3995 35.6887 13.3465 40.8419 10.0888 57.9743L0.141147 101.636C-0.558347 104.925 1.41016 108.181 4.5381 108.917C7.66071 109.65 10.7585 107.58 11.4555 104.294L21.9203 75.204L24.6282 161.777C24.6282 165.767 27.7034 169 31.4956 169C35.2929 169 38.3684 165.767 38.3684 161.777L41.0989 110.149L43.8244 161.777C43.8244 165.767 46.9021 169 50.6944 169C54.4891 169 57.5672 165.767 57.5672 161.777L61.4317 57.2257L103.096 51.1664C106.686 50.6436 109.361 47.4157 109.361 43.6047Z" fill="black"/>
<path d="M99.7462 94.5296L118.183 78.2002L109.931 67.902L91.4943 84.2314L99.7462 94.5296Z" fill="black"/>
<path d="M92.7883 148.14C92.7883 151.205 95.1493 153.688 98.0619 153.688C100.972 153.688 103.336 151.205 103.336 148.14C103.336 145.078 100.972 142.599 98.0619 142.599C95.1493 142.599 92.7883 145.078 92.7883 148.14Z" fill="black"/>
<path d="M116.896 125.963H105.594V137.845H116.896V125.963Z" fill="black"/>
<path d="M125.912 98.2431L119.751 159.495H88.4119L82.2515 98.2431H73.1631L80.278 169H127.886L135.003 98.2431H125.912Z" fill="black"/>
</svg>
