<svg width="118" height="103" viewBox="0 0 118 103" fill="none" xmlns="http://www.w3.org/2000/svg">
<path d="M61 48.368V13.7762C61 10.9182 59.7357 8.17722 57.4853 6.15629C55.2349 4.13535 52.1826 3 49 3C45.8174 3 42.7652 4.13535 40.5147 6.15629C38.2643 8.17722 37 10.9182 37 13.7762V48.368C30.6832 50.8437 25.5083 55.1971 22.3455 60.6963C19.1826 66.1954 18.2247 72.5049 19.6329 78.5636C21.041 84.6224 24.7293 90.061 30.0775 93.9649C35.4258 97.8689 42.1078 100 49 100C55.8922 100 62.5742 97.8689 67.9225 93.9649C73.2708 90.061 76.959 84.6224 78.3672 78.5636C79.7753 72.5049 78.8174 66.1954 75.6546 60.6963C72.4917 55.1971 67.3168 50.8437 61 48.368ZM49 83.8218C46.6267 83.8218 44.3066 83.1898 42.3332 82.0057C40.3598 80.8215 38.8217 79.1385 37.9135 77.1694C37.0052 75.2003 36.7676 73.0336 37.2306 70.9432C37.6936 68.8528 38.8365 66.9327 40.5147 65.4256C42.193 63.9185 44.3312 62.8922 46.6589 62.4764C48.9867 62.0606 51.3995 62.274 53.5922 63.0896C55.7849 63.9052 57.6591 65.2864 58.9777 67.0586C60.2962 68.8307 61 70.9142 61 73.0455C61 75.9036 59.7357 78.6445 57.4853 80.6655C55.2349 82.6864 52.1826 83.8218 49 83.8218Z" fill="#2CA9BC"/>
<path d="M91 40.7168L103 51.493L115 40.7168" stroke="black" stroke-width="5" stroke-linecap="round" stroke-linejoin="round"/>
<path d="M103 3V51.4931M37.0002 73.0455C37.0002 75.1769 37.704 77.2604 39.0226 79.0325C40.3412 80.8046 42.2153 82.1859 44.408 83.0015C46.6007 83.8171 49.0135 84.0305 51.3413 83.6147C53.6691 83.1989 55.8073 82.1726 57.4855 80.6655C59.1637 79.1584 60.3066 77.2383 60.7696 75.1479C61.2327 73.0575 60.995 70.8908 60.0868 68.9217C59.1785 66.9526 57.6405 65.2695 55.6671 64.0854C53.6937 62.9013 51.3736 62.2693 49.0002 62.2693C45.8176 62.2693 42.7654 63.4047 40.515 65.4256C38.2645 67.4465 37.0002 70.1875 37.0002 73.0455ZM79.0002 73.0455C79.003 77.9032 77.5431 82.6712 74.7752 86.8448C72.0073 91.0184 68.0342 94.4422 63.2766 96.7539C58.5191 99.0656 53.154 100.179 47.7493 99.9766C42.3447 99.774 37.1016 98.263 32.575 95.6033C28.0485 92.9437 24.4069 89.2345 22.0358 84.8683C19.6648 80.5021 18.6524 75.6415 19.1059 70.8009C19.5594 65.9603 21.4618 61.3198 24.6119 57.3708C27.762 53.4217 32.0425 50.311 37.0002 48.368V13.7762C37.0002 10.9182 38.2645 8.17722 40.515 6.15629C42.7654 4.13535 45.8176 3 49.0002 3C52.1828 3 55.2351 4.13535 57.4855 6.15629C59.7359 8.17722 61.0002 10.9182 61.0002 13.7762V48.368C66.3478 50.4638 70.8987 53.9146 74.0958 58.2976C77.2928 62.6807 78.9972 67.8059 79.0002 73.0455Z" stroke="black" stroke-width="5" stroke-linecap="round" stroke-linejoin="round"/>
<path d="M10.1747 11.9157V7.68541L12.3749 5.6506C12.6414 5.40518 12.639 5.01026 12.3749 4.76707C12.1083 4.52164 11.6794 4.52387 11.4153 4.76707L10.1747 5.91165V3.62026C10.1747 3.28336 9.8718 3 9.49622 3C9.11822 3 8.81775 3.27889 8.81775 3.62026V5.93396L7.57713 4.79161C7.31301 4.54842 6.88412 4.54618 6.61758 4.79161C6.35346 5.03481 6.35104 5.42972 6.61758 5.67514L8.81775 7.70995V11.9179L4.83902 9.80277L4.02729 7.02945C3.93036 6.69478 3.5572 6.49844 3.19616 6.58768C2.8327 6.67693 2.61946 7.02053 2.71639 7.35297L3.16951 8.91477L1.01537 7.76796C0.697947 7.59839 0.278751 7.70103 0.0921726 8C-0.0968292 8.3012 0.0146333 8.6805 0.336906 8.8523L2.51285 10.0103L0.816679 10.4275C0.455637 10.5167 0.239982 10.8581 0.336906 11.1928C0.43383 11.5252 0.804564 11.7238 1.16803 11.6345L4.18236 10.896L8.13929 13L4.16056 15.1151L1.14622 14.3766C0.782756 14.2874 0.412022 14.4859 0.315098 14.8184C0.218174 15.1531 0.43383 15.4944 0.794872 15.5837L2.49104 16.0009L0.336906 17.1477C0.0194795 17.3173 -0.0944061 17.701 0.0921726 18C0.281174 18.3012 0.693101 18.4016 1.01537 18.232L3.19132 17.0741L2.7382 18.6359C2.64127 18.9683 2.85451 19.3119 3.21797 19.4012C3.57901 19.4904 3.95217 19.2941 4.04909 18.9594L4.86326 16.1861L8.82018 14.0821V18.3347L6.62 20.4096C6.35346 20.6551 6.35588 21.05 6.62 21.2932C6.88654 21.5386 7.31543 21.5364 7.57955 21.2932L8.82018 20.1508V22.3797C8.82018 22.7166 9.12306 23 9.49864 23C9.87665 23 10.1771 22.7211 10.1771 22.3797V20.1263L11.4177 21.2686C11.6819 21.5118 12.1107 21.5141 12.3773 21.2686C12.6414 21.0254 12.6438 20.6305 12.3773 20.3851L10.1771 18.3101V14.0821L14.1776 16.2084L15.0282 18.9996C15.1251 19.3342 15.4982 19.5306 15.8593 19.4413C16.2227 19.3521 16.436 19.0085 16.3391 18.676L15.8859 17.1142L17.9843 18.2298C18.3018 18.3994 18.721 18.2967 18.9075 17.9978C19.0965 17.6966 18.9851 17.3173 18.6628 17.1455L16.545 16.0187L18.2412 15.6015C18.6022 15.5123 18.8179 15.1709 18.721 14.8362C18.624 14.5038 18.2533 14.3052 17.8898 14.3945L14.8392 15.1129L10.8604 12.9978L14.861 10.8715L17.9116 11.5899C18.2751 11.6792 18.6458 11.4806 18.7428 11.1481C18.8397 10.8135 18.624 10.4721 18.263 10.3829L16.5668 9.96564L18.6652 8.85007C18.9827 8.6805 19.0965 8.29674 18.91 7.99777C18.721 7.69656 18.309 7.59616 17.9868 7.76573L15.869 8.89246L16.3221 7.33066C16.419 6.99822 16.2058 6.65462 15.8423 6.56537C15.4813 6.47613 15.1081 6.67247 15.0112 7.00714L14.1607 9.7983L10.1747 11.9157Z" fill="black"/>
</svg>
