<svg width="25" height="25" viewBox="0 0 25 25" fill="none" xmlns="http://www.w3.org/2000/svg">
<path d="M3.125 6.25H5.20833M5.20833 6.25H21.875M5.20833 6.25L5.20833 20.8333C5.20833 21.3859 5.42783 21.9158 5.81853 22.3065C6.20923 22.6972 6.73913 22.9167 7.29167 22.9167H17.7083C18.2609 22.9167 18.7908 22.6972 19.1815 22.3065C19.5722 21.9158 19.7917 21.3859 19.7917 20.8333V6.25M8.33333 6.25V4.16667C8.33333 3.61413 8.55283 3.08423 8.94353 2.69353C9.33423 2.30283 9.86413 2.08334 10.4167 2.08334H14.5833C15.1359 2.08334 15.6658 2.30283 16.0565 2.69353C16.4472 3.08423 16.6667 3.61413 16.6667 4.16667V6.25M10.4167 11.4583V17.7083M14.5833 11.4583V17.7083" stroke="#202224" stroke-width="1.3" stroke-linecap="round" stroke-linejoin="round"/>
</svg>
