<svg width="206" height="262" viewBox="0 0 206 262" fill="none" xmlns="http://www.w3.org/2000/svg">
<path d="M84.9 0C79.0825 0 74.2875 5.28633 74.2875 11.7V19.5H10.6125C4.79497 19.5 0 24.7863 0 31.2V35.1H1.47856C3.04004 39.4113 6.16299 42.9 10.6125 42.9H14.4402L30.7044 243.537C31.5197 253.561 39.1889 261.3 48.309 261.3H156.866C165.986 261.3 173.655 253.561 174.471 243.537L190.735 42.9H194.563C199.012 42.9 202.135 39.4113 203.696 35.1H205.175V31.2C205.175 24.7863 200.38 19.5 194.563 19.5H130.888V11.7C130.888 5.28633 126.093 0 120.275 0H84.9ZM84.9 7.8H120.275C122.279 7.8 123.813 9.49102 123.813 11.7V19.5H81.3625V11.7C81.3625 9.49102 82.8963 7.8 84.9 7.8ZM10.6125 27.3H194.563C196.566 27.3 198.1 28.991 198.1 31.2C198.1 33.409 196.566 35.1 194.563 35.1H10.6125C8.60884 35.1 7.075 33.409 7.075 31.2C7.075 28.991 8.60884 27.3 10.6125 27.3ZM21.5566 42.9H183.618L167.423 242.836C166.926 248.914 162.393 253.5 156.866 253.5H48.309C42.7955 253.5 38.2492 248.914 37.7518 242.836L21.5566 42.9ZM166.276 70.1848C164.425 70.1695 162.877 71.7387 162.725 73.7801C162.573 75.9281 164.024 77.8019 165.972 77.9848C167.921 78.1523 169.62 76.5375 169.786 74.4047C169.938 72.2566 168.473 70.3676 166.539 70.2C166.456 70.1848 166.373 70.1848 166.276 70.1848ZM38.9816 70.2C38.8572 70.2 38.7467 70.2 38.6361 70.2152C36.6877 70.3828 35.223 72.2719 35.375 74.4047C35.5408 76.5527 37.2405 78.1523 39.1889 77.9848C41.1373 77.8172 42.5882 75.9434 42.4362 73.7953C42.298 71.7996 40.8056 70.2457 38.9816 70.2ZM77.7283 70.2C75.7799 70.2609 74.2322 72.0586 74.2875 74.2066C74.3428 76.3547 75.9733 78.0609 77.9217 78C79.8701 77.9391 81.4178 76.1566 81.3625 73.9934C81.3072 71.8453 79.6767 70.1543 77.7283 70.2ZM127.184 70.2C125.333 70.2914 123.868 71.952 123.813 73.9934C123.757 76.1566 125.305 77.9391 127.253 78C129.202 78.0609 130.832 76.3547 130.888 74.2066C130.929 72.0586 129.395 70.2609 127.447 70.2C127.364 70.2 127.267 70.2 127.184 70.2ZM165.157 85.7391C163.305 85.7238 161.758 87.293 161.606 89.3344C161.454 91.4672 162.905 93.3562 164.853 93.5238C166.801 93.6914 168.501 92.0918 168.653 89.9437C168.819 87.7957 167.354 85.9219 165.42 85.7391C165.337 85.7391 165.254 85.7391 165.157 85.7391ZM40.1147 85.7543C39.9903 85.7543 39.866 85.7543 39.7554 85.7695C37.807 85.9371 36.3561 87.8109 36.5081 89.959C36.6601 92.107 38.3736 93.7066 40.3082 93.5391C42.2565 93.3715 43.7213 91.4824 43.5555 89.3344C43.4173 87.3387 41.9249 85.8 40.1147 85.7543ZM78.1014 85.8C76.153 85.8609 74.6191 87.6586 74.6744 89.8066C74.7159 91.9547 76.3464 93.6609 78.3086 93.6C80.257 93.5391 81.7909 91.7414 81.7494 89.5934C81.6941 87.4453 80.0636 85.7391 78.1014 85.8ZM126.811 85.8C124.959 85.8914 123.481 87.5519 123.426 89.5934C123.384 91.7566 124.918 93.5391 126.866 93.6C128.829 93.6609 130.459 91.9547 130.501 89.8066C130.556 87.6586 129.022 85.8609 127.074 85.8C126.977 85.8 126.894 85.8 126.811 85.8ZM164.052 101.293C162.186 101.278 160.638 102.847 160.5 104.873C160.334 107.021 161.785 108.911 163.734 109.078C165.682 109.246 167.382 107.646 167.534 105.498C167.7 103.35 166.249 101.476 164.3 101.293C164.217 101.293 164.134 101.293 164.052 101.293ZM41.234 101.293C41.1096 101.293 40.9853 101.309 40.8747 101.324C38.9263 101.491 37.4754 103.365 37.6274 105.513C37.7794 107.661 39.4929 109.261 41.4413 109.093C43.3758 108.926 44.8406 107.037 44.6748 104.889C44.5366 102.893 43.0442 101.339 41.234 101.293ZM78.4883 101.4C76.5399 101.446 74.9922 103.243 75.0475 105.407C75.1028 107.555 76.7334 109.246 78.6817 109.2C80.6301 109.139 82.1778 107.341 82.1225 105.178C82.0672 103.03 80.4367 101.339 78.4883 101.4ZM126.424 101.4C124.573 101.491 123.094 103.152 123.039 105.193C122.997 107.341 124.531 109.139 126.479 109.2C128.442 109.261 130.072 107.555 130.114 105.407C130.169 103.259 128.635 101.461 126.687 101.4C126.59 101.4 126.507 101.4 126.424 101.4ZM162.932 116.832C161.067 116.817 159.519 118.386 159.367 120.428C159.229 122.576 160.68 124.45 162.614 124.617C164.563 124.8 166.276 123.2 166.428 121.052C166.58 118.904 165.129 117.03 163.181 116.863C163.098 116.848 163.015 116.848 162.932 116.832ZM42.3395 116.863C42.2289 116.848 42.1045 116.863 41.994 116.878C40.0456 117.046 38.5947 118.92 38.7467 121.068C38.8987 123.216 40.6122 124.815 42.5605 124.648C44.4951 124.48 45.9599 122.591 45.8079 120.458C45.6559 118.447 44.1635 116.893 42.3395 116.863ZM78.8752 117C76.9268 117.046 75.3792 118.843 75.4344 120.991C75.4897 123.139 77.1065 124.846 79.0548 124.785C81.017 124.724 82.5509 122.941 82.5094 120.778C82.4542 118.63 80.8236 116.939 78.8752 117ZM126.037 117C124.186 117.076 122.721 118.737 122.666 120.778C122.61 122.941 124.158 124.724 126.106 124.785C128.055 124.846 129.685 123.139 129.727 120.991C129.782 118.843 128.248 117.046 126.3 117C126.217 116.985 126.12 116.985 126.037 117ZM161.799 132.387C159.948 132.371 158.4 133.941 158.248 135.967C158.096 138.115 159.547 140.004 161.495 140.171C163.444 140.339 165.143 138.739 165.309 136.591C165.447 134.443 163.996 132.57 162.062 132.402C161.979 132.387 161.896 132.387 161.799 132.387ZM43.4587 132.417C43.3482 132.402 43.2238 132.402 43.1133 132.417C41.1649 132.585 39.714 134.474 39.866 136.622C40.018 138.755 41.7314 140.37 43.666 140.202C45.6144 140.019 47.0792 138.145 46.9272 135.997C46.7751 134.002 45.2828 132.448 43.4587 132.417ZM79.2621 132.585C77.2999 132.646 75.7661 134.428 75.8213 136.576C75.8628 138.739 77.4934 140.43 79.4417 140.385C81.404 140.324 82.9378 138.526 82.8963 136.378C82.8411 134.23 81.2105 132.524 79.2621 132.585ZM125.65 132.585C123.799 132.676 122.334 134.337 122.279 136.378C122.223 138.526 123.771 140.324 125.719 140.385C127.668 140.446 129.298 138.739 129.354 136.591C129.409 134.443 127.861 132.646 125.913 132.585C125.83 132.585 125.747 132.585 125.65 132.585ZM160.68 147.941C158.828 147.926 157.281 149.495 157.129 151.536C156.977 153.669 158.427 155.558 160.376 155.726C162.324 155.893 164.024 154.294 164.176 152.146C164.328 149.998 162.877 148.124 160.942 147.956C160.846 147.941 160.763 147.941 160.68 147.941ZM44.5918 147.956C44.4675 147.956 44.3569 147.956 44.2326 147.956C42.2842 148.139 40.8333 150.013 40.9853 152.161C41.1373 154.309 42.8507 155.909 44.7853 155.741C46.7337 155.573 48.1984 153.684 48.0326 151.552C47.8944 149.556 46.4021 148.002 44.5918 147.956ZM79.6352 148.185C77.6868 148.23 76.1392 150.028 76.1944 152.176C76.2497 154.339 77.8803 156.03 79.8287 155.985C81.7771 155.924 83.3247 154.126 83.2694 151.978C83.2142 149.815 81.5836 148.124 79.6352 148.185ZM125.291 148.185C123.426 148.261 121.947 149.921 121.892 151.978C121.85 154.126 123.384 155.924 125.346 155.985C127.295 156.03 128.925 154.339 128.967 152.176C129.022 150.028 127.488 148.23 125.526 148.185C125.457 148.17 125.36 148.17 125.291 148.185ZM159.574 163.495C157.709 163.465 156.161 165.034 156.009 167.091C155.857 169.223 157.308 171.112 159.257 171.28C161.205 171.448 162.905 169.848 163.057 167.7C163.222 165.552 161.758 163.678 159.809 163.495C159.74 163.495 159.657 163.495 159.574 163.495ZM45.7111 163.511C45.5868 163.511 45.4762 163.511 45.3657 163.511C43.4173 163.693 41.9525 165.567 42.1184 167.715C42.2704 169.863 43.97 171.463 45.9184 171.295C47.8668 171.128 49.3177 169.239 49.1657 167.091C49.0137 165.095 47.5213 163.556 45.7111 163.511ZM80.0221 163.77C78.0737 163.83 76.5261 165.628 76.5814 167.776C76.6366 169.924 78.2672 171.63 80.2156 171.57C82.164 171.509 83.7116 169.711 83.6563 167.563C83.6011 165.415 81.9705 163.709 80.0221 163.77ZM124.904 163.785C123.039 163.861 121.56 165.521 121.505 167.578C121.463 169.726 122.997 171.524 124.959 171.585C126.908 171.63 128.538 169.939 128.58 167.776C128.635 165.628 127.101 163.83 125.139 163.785C125.07 163.77 124.973 163.77 124.904 163.785ZM158.455 179.034C156.59 179.019 155.042 180.588 154.89 182.63C154.738 184.778 156.189 186.652 158.137 186.834C160.086 187.002 161.785 185.402 161.951 183.254C162.103 181.106 160.638 179.232 158.69 179.05C158.621 179.05 158.538 179.05 158.455 179.034ZM46.8304 179.05C46.7061 179.05 46.5955 179.065 46.485 179.08C44.5366 179.248 43.0718 181.121 43.2238 183.27C43.3896 185.418 45.0893 187.017 47.0377 186.834C48.9861 186.667 50.437 184.793 50.285 182.645C50.133 180.649 48.6406 179.095 46.8304 179.05ZM80.409 179.354C78.4468 179.415 76.913 181.213 76.9544 183.361C77.0097 185.524 78.6403 187.215 80.5887 187.154C82.5509 187.109 84.0847 185.311 84.0294 183.163C83.988 181 82.3574 179.309 80.409 179.354ZM124.517 179.385C122.652 179.461 121.187 181.121 121.132 183.178C121.076 185.326 122.624 187.109 124.573 187.17C126.521 187.23 128.151 185.524 128.207 183.376C128.262 181.228 126.714 179.43 124.766 179.385C124.683 179.37 124.6 179.37 124.517 179.385ZM157.322 194.589C155.47 194.573 153.923 196.143 153.771 198.184C153.619 200.332 155.07 202.206 157.018 202.373C158.966 202.556 160.666 200.941 160.832 198.793C160.984 196.661 159.519 194.771 157.585 194.604C157.502 194.589 157.419 194.589 157.322 194.589ZM47.9497 194.619C47.8253 194.604 47.7148 194.604 47.5904 194.619C45.6559 194.787 44.1911 196.676 44.3431 198.824C44.5089 200.957 46.2086 202.571 48.157 202.389C50.1054 202.221 51.5563 200.347 51.4043 198.199C51.2523 196.204 49.7599 194.65 47.9497 194.619ZM80.7821 194.954C78.8337 195.015 77.2861 196.813 77.3414 198.961C77.3966 201.124 79.0272 202.815 80.9756 202.754C82.924 202.709 84.4716 200.911 84.4164 198.763C84.3611 196.6 82.7305 194.909 80.7821 194.954ZM124.144 194.97C122.279 195.061 120.8 196.721 120.759 198.763C120.703 200.911 122.237 202.709 124.199 202.754C126.148 202.815 127.778 201.124 127.834 198.961C127.875 196.813 126.341 195.03 124.379 194.97C124.31 194.97 124.213 194.97 124.144 194.97ZM156.203 210.143C154.351 210.128 152.803 211.697 152.651 213.723C152.499 215.871 153.95 217.76 155.885 217.928C157.833 218.095 159.547 216.496 159.699 214.348C159.851 212.2 158.4 210.326 156.451 210.158C156.369 210.143 156.286 210.143 156.203 210.143ZM49.069 210.158C48.9446 210.158 48.8341 210.158 48.7097 210.173C46.7751 210.341 45.3104 212.23 45.4762 214.378C45.6282 216.511 47.3279 218.126 49.2763 217.958C51.2247 217.775 52.6756 215.902 52.5236 213.754C52.3854 211.758 50.893 210.204 49.069 210.158ZM81.169 210.554C79.2207 210.615 77.673 212.413 77.7283 214.561C77.7835 216.709 79.4003 218.415 81.3625 218.354C83.3109 218.293 84.8447 216.496 84.7895 214.348C84.748 212.2 83.1174 210.493 81.169 210.554ZM123.743 210.57C121.892 210.661 120.413 212.321 120.372 214.363C120.316 216.511 121.85 218.309 123.813 218.354C125.761 218.415 127.391 216.724 127.447 214.561C127.488 212.413 125.954 210.63 123.992 210.57C123.909 210.57 123.826 210.57 123.743 210.57ZM155.083 225.697C153.232 225.682 151.67 227.251 151.532 229.293C151.38 231.425 152.831 233.299 154.779 233.467C156.728 233.634 158.427 232.05 158.579 229.902C158.732 227.754 157.281 225.88 155.332 225.712C155.249 225.697 155.166 225.697 155.083 225.697ZM50.1883 225.712C50.0639 225.712 49.9534 225.712 49.8428 225.728C47.8944 225.895 46.4297 227.784 46.5955 229.917C46.7475 232.065 48.4472 233.665 50.3956 233.497C52.3439 233.33 53.7949 231.456 53.6429 229.308C53.5047 227.312 52.0123 225.758 50.1883 225.712ZM81.5421 226.139C79.5938 226.2 78.0599 227.998 78.1014 230.161C78.1566 232.309 79.7872 234 81.7494 233.939C83.6978 233.893 85.2316 232.096 85.1764 229.932C85.1349 227.784 83.5043 226.093 81.5421 226.139ZM123.37 226.154C121.519 226.246 120.04 227.906 119.985 229.963C119.93 232.111 121.477 233.893 123.426 233.954C125.374 234.015 127.005 232.309 127.06 230.161C127.115 228.013 125.567 226.215 123.619 226.154C123.536 226.154 123.453 226.154 123.37 226.154Z" fill="black"/>
</svg>
