<svg width="116" height="111" viewBox="0 0 116 111" fill="none" xmlns="http://www.w3.org/2000/svg">
<g clip-path="url(#clip0_287_184)">
<path d="M49.1508 47.8879C49.0948 45.426 46.9692 43.4022 44.3261 43.4408L27.8848 43.6845L20.5754 33.5046L29.0776 40.5487L32.7799 40.4939V30.4094C32.7799 26.8921 29.8001 24.041 26.1246 24.041H14.2559C10.0115 24.041 7.16769 27.8217 7.60065 30.67V63.1344L9.7548 79.759L0.410703 101.46C-0.731623 104.113 0.589914 107.151 3.36281 108.244C6.13547 109.337 9.30983 108.072 10.4522 105.419L20.3396 82.4548C20.6959 81.6269 20.8228 80.725 20.7077 79.8361L19.0085 66.7217H23.2262L24.755 77.9244L19.3465 102.363C18.7251 105.171 20.5999 107.928 23.5339 108.523C26.4733 109.118 29.3511 107.319 29.9709 104.516L35.2333 80.7374C33.2787 78.1016 31.9445 74.9741 31.3949 71.646C30.901 68.6525 31.5564 64.9438 33.3408 60.5861L32.7792 55.8285C25.2967 55.9391 24.6673 56.1063 22.9015 55.5491C20.5992 54.8226 18.914 53.1043 18.4555 51.9776L13.4199 39.6048L21.4916 50.8461C22.382 52.0864 23.8871 52.8422 25.4832 52.8183L44.4729 52.5367C47.1273 52.4977 49.1927 50.3915 49.1524 47.9183C49.1526 47.9081 49.151 47.8981 49.1508 47.8879Z" fill="#F95812"/>
<path d="M20.2419 2.36331C14.8008 2.36331 10.3899 6.58412 10.3899 11.7907C10.3899 17.0151 14.8269 21.2181 20.2419 21.2181C25.6572 21.2181 30.094 17.0151 30.094 11.7907C30.094 6.58412 25.6831 2.36331 20.2419 2.36331Z" fill="#F95812"/>
<path d="M45.5984 33.9386L41.1301 34.6139C39.9021 34.7995 39.2052 36.0626 39.7331 37.1368L41.3209 40.3673C44.3008 40.3231 45.3886 40.1832 47.0984 40.7671L47.7403 35.9262C47.8968 34.7442 46.8211 33.7535 45.5984 33.9386Z" fill="#F95812"/>
<path d="M63.4397 66.8017C62.5758 61.5689 56.4233 55.5142 51.5465 51.4443C50.1978 53.9962 47.5038 55.6109 44.5238 55.6545L39.49 55.729C36.6557 60.6989 34.0197 66.7449 34.7451 71.1396C36.2042 79.9771 43.8097 86.1731 51.735 84.9751C59.6584 83.7771 64.899 75.6407 63.4397 66.8017Z" fill="#F95812"/>
<path d="M103.886 89.4617C100.074 89.4617 96.7529 91.5097 95.0598 94.5165C95.4314 95.5057 95.6978 96.4629 95.8498 97.3836C96.2542 99.8336 96.2271 102.283 95.7735 104.666C97.5959 107.069 100.552 108.637 103.886 108.637C109.411 108.637 113.905 104.336 113.905 99.0491C113.905 93.7625 109.411 89.4617 103.886 89.4617ZM103.886 103.186C101.502 103.186 99.5627 101.33 99.5627 99.0491C99.5627 96.7679 101.502 94.9121 103.886 94.9121C106.27 94.9121 108.209 96.7679 108.209 99.0491C108.209 101.33 106.27 103.186 103.886 103.186Z" fill="#F95812"/>
<path d="M113 48.0293H110.418C110.65 47.6215 110.783 47.1539 110.783 46.6566C110.783 45.0711 109.44 43.7859 107.783 43.7859H76.1448C74.488 43.7859 73.1449 45.0711 73.1449 46.6566C73.1449 47.1539 73.2772 47.6215 73.5099 48.0293H70.9278C69.2709 48.0293 67.9279 49.3145 67.9279 50.8999C67.9279 52.4853 69.2709 53.7705 70.9278 53.7705H71.2737L72.2778 62.102L74.13 61.8221C77.4802 61.3159 80.4431 63.9333 80.1919 67.1674L80.1887 76.4457C82.3363 78.1625 85.3099 80.8733 87.987 83.8406C89.9365 86.0016 91.5324 88.069 92.776 90.0349C95.4517 87.0199 99.4383 85.1013 103.886 85.1013C105.64 85.1013 107.323 85.3996 108.882 85.9453L112.663 53.7705H113C114.657 53.7705 116 52.4853 116 50.8999C116 49.3145 114.657 48.0293 113 48.0293Z" fill="#F95812"/>
<path d="M92.5008 97.8899C91.2343 90.2216 80.1194 80.3743 76.7971 78.0092L76.8009 67.0148C76.9573 65.8352 75.8856 64.8414 74.6592 65.027L70.191 65.7023C68.9632 65.8879 68.2661 67.151 68.794 68.2252L72.0368 78.8203C69.6382 82.0501 62.54 94.5595 63.8058 102.228C63.9463 103.079 64.1443 103.906 64.3939 104.703C65.0745 106.879 67.1639 108.364 69.5369 108.364H87.146C89.7256 108.364 91.945 106.608 92.4215 104.182C92.8123 102.189 92.8592 100.061 92.5008 97.8899Z" fill="#F95812"/>
</g>
<defs>
<clipPath id="clip0_287_184">
<rect width="116" height="111" fill="white"/>
</clipPath>
</defs>
</svg>
