<svg width="129" height="123" viewBox="0 0 129 123" fill="none" xmlns="http://www.w3.org/2000/svg">
<path d="M106.963 11.8244C106.098 9.72521 102.994 9.72521 102.129 11.8244L99.8153 17.4377C99.5514 18.0785 99.0214 18.5859 98.3517 18.8386L92.486 21.0525C90.2924 21.8804 90.2924 24.8511 92.486 25.679L98.3517 27.8929C99.0214 28.1457 99.5514 28.653 99.8153 29.2938L102.129 34.9071C102.994 37.0063 106.098 37.0063 106.963 34.9072L109.276 29.2938C109.54 28.653 110.07 28.1457 110.74 27.8929L116.606 25.679C118.799 24.8511 118.799 21.8804 116.606 21.0525L110.74 18.8386C110.07 18.5859 109.54 18.0785 109.276 17.4377L106.963 11.8244Z" fill="#1C274C"/>
<path d="M86.1761 41.6646C85.3107 39.5655 82.2067 39.5655 81.3413 41.6646L80.498 43.7112C80.2341 44.3521 79.7041 44.8594 79.0344 45.1121L76.8956 45.9193C74.7021 46.7472 74.7021 49.718 76.8956 50.5459L79.0344 51.353C79.7041 51.6057 80.2341 52.113 80.498 52.7542L81.3413 54.8006C82.2067 56.8998 85.3107 56.8998 86.1761 54.8006L87.0194 52.7542C87.2834 52.113 87.8133 51.6057 88.4831 51.353L90.6218 50.5459C92.8153 49.718 92.8153 46.7472 90.6218 45.9193L88.4831 45.1121C87.8133 44.8594 87.2834 44.3521 87.0194 43.7112L86.1761 41.6646Z" fill="#1C274C"/>
<path opacity="0.5" d="M64.5 112.75C94.185 112.75 118.25 89.8044 118.25 61.5C118.25 59.1287 114.522 58.7366 113.236 60.7661C107.118 70.4206 96.0056 76.875 83.3125 76.875C64.0168 76.875 48.375 61.9607 48.375 43.5625C48.375 31.4596 55.1443 20.8641 65.2697 15.0304C67.3982 13.804 66.987 10.25 64.5 10.25C34.8147 10.25 10.75 33.1954 10.75 61.5C10.75 89.8044 34.8147 112.75 64.5 112.75Z" fill="#1C274C"/>
</svg>
