<?xml version="1.0" standalone="no"?>
<!DOCTYPE svg PUBLIC "-//W3C//DTD SVG 20010904//EN"
 "http://www.w3.org/TR/2001/REC-SVG-20010904/DTD/svg10.dtd">
<svg version="1.0" xmlns="http://www.w3.org/2000/svg"
 width="512.000000pt" height="512.000000pt" viewBox="0 0 512.000000 512.000000"
 preserveAspectRatio="xMidYMid meet">

<g transform="translate(0.000000,512.000000) scale(0.100000,-0.100000)"
fill="#000000" stroke="none">
<path d="M2760 3925 c-148 -27 -312 -95 -450 -188 -156 -104 -337 -319 -402
-474 -12 -29 -25 -53 -28 -53 -4 0 -40 15 -81 34 -129 58 -188 70 -344 71
-116 0 -153 -4 -218 -23 -232 -67 -424 -225 -527 -434 -61 -126 -82 -219 -84
-370 l0 -128 -55 -16 c-376 -109 -545 -539 -346 -880 71 -121 227 -236 366
-269 94 -22 3557 -23 3672 -1 288 55 541 264 652 539 109 267 77 584 -81 823
-140 210 -390 366 -629 390 -37 4 -68 12 -70 18 -1 6 -12 50 -24 98 -75 312
-311 607 -606 755 -90 46 -227 91 -323 108 -104 18 -320 18 -422 0z m388 -136
c378 -59 711 -353 820 -724 12 -38 26 -101 32 -140 6 -38 18 -77 26 -86 10
-11 41 -18 100 -23 118 -10 220 -38 317 -88 119 -61 256 -200 315 -318 65
-130 86 -228 80 -375 -9 -205 -75 -354 -222 -500 -130 -129 -266 -193 -454
-215 -115 -13 -3379 -13 -3482 0 -154 20 -287 115 -357 257 -32 65 -37 84 -41
171 -3 81 -1 107 18 162 57 171 180 275 370 315 100 21 114 35 106 105 -18
170 -18 208 -2 291 47 240 229 449 460 526 72 24 96 27 216 28 115 0 145 -3
204 -23 79 -26 133 -52 191 -92 89 -60 111 -50 159 74 181 466 647 733 1144
655z"/>
</g>
</svg>
