<svg width="126" height="105" viewBox="0 0 126 105" fill="none" xmlns="http://www.w3.org/2000/svg">
<path d="M66.75 49.3034V13.9984C66.75 11.0815 65.433 8.28397 63.0888 6.22136C60.7446 4.15876 57.5652 3 54.25 3C50.9348 3 47.7554 4.15876 45.4112 6.22136C43.067 8.28397 41.75 11.0815 41.75 13.9984V49.3034C35.17 51.8302 29.7795 56.2734 26.4848 61.8859C23.1902 67.4984 22.1924 73.9379 23.6592 80.1217C25.126 86.3054 28.968 91.8561 34.5391 95.8405C40.1102 99.8249 47.0706 102 54.25 102C61.4294 102 68.3898 99.8249 73.9609 95.8405C79.532 91.8561 83.374 86.3054 84.8408 80.1217C86.3076 73.9379 85.3098 67.4984 82.0152 61.8859C78.7205 56.2734 73.33 51.8302 66.75 49.3034ZM54.25 85.4882C51.7778 85.4882 49.361 84.8431 47.3054 83.6346C45.2498 82.4261 43.6476 80.7084 42.7015 78.6987C41.7554 76.689 41.5079 74.4776 41.9902 72.3441C42.4725 70.2106 43.663 68.2509 45.4112 66.7127C47.1593 65.1746 49.3866 64.1271 51.8114 63.7027C54.2361 63.2783 56.7495 63.4961 59.0336 64.3285C61.3176 65.161 63.2699 66.5707 64.6434 68.3794C66.0169 70.1881 66.75 72.3145 66.75 74.4898C66.75 77.4067 65.433 80.2042 63.0888 82.2668C60.7446 84.3294 57.5652 85.4882 54.25 85.4882Z" fill="#EF3826"/>
<path d="M123 13.9984L110.5 3L98 13.9984" stroke="black" stroke-width="5" stroke-linecap="round" stroke-linejoin="round"/>
<path d="M110.5 52.4929V3M41.7502 74.4898C41.7502 76.6651 42.4833 78.7915 43.8569 80.6002C45.2304 82.4089 47.1826 83.8186 49.4667 84.651C51.7508 85.4834 54.2641 85.7013 56.6889 85.2769C59.1136 84.8525 61.3409 83.805 63.089 82.2668C64.8372 80.7287 66.0277 78.7689 66.51 76.6355C66.9923 74.502 66.7448 72.2906 65.7987 70.2809C64.8526 68.2712 63.2505 66.5534 61.1948 65.3449C59.1392 64.1364 56.7225 63.4914 54.2502 63.4914C50.935 63.4914 47.7556 64.6501 45.4114 66.7127C43.0672 68.7753 41.7502 71.5728 41.7502 74.4898ZM85.5002 74.4898C85.5031 79.4476 83.9824 84.314 81.0991 88.5736C78.2159 92.8332 74.0773 96.3277 69.1215 98.687C64.1657 101.046 58.577 102.183 52.9472 101.976C47.3174 101.769 41.8558 100.227 37.1406 97.5127C32.4255 94.7982 28.6322 91.0125 26.1623 86.5563C23.6924 82.1001 22.6379 77.1392 23.1103 72.1988C23.5826 67.2584 25.5644 62.5223 28.8457 58.4918C32.1271 54.4614 36.5859 51.2865 41.7502 49.3034V13.9984C41.7502 11.0815 43.0672 8.28397 45.4114 6.22136C47.7556 4.15876 50.935 3 54.2502 3C57.5654 3 60.7448 4.15876 63.089 6.22136C65.4332 8.28397 66.7502 11.0815 66.7502 13.9984V49.3034C72.3206 51.4425 77.0612 54.9643 80.3914 59.4378C83.7217 63.9112 85.4971 69.1421 85.5002 74.4898Z" stroke="black" stroke-width="5" stroke-linecap="round" stroke-linejoin="round"/>
<path d="M11.4999 19.2709C10.4101 19.2709 9.34469 18.9618 8.43849 18.3826C7.53231 17.8034 6.82603 16.9802 6.40896 16.0171C5.99189 15.054 5.88276 13.9942 6.09539 12.9717C6.308 11.9493 6.83283 11.0101 7.60347 10.273C8.37411 9.53585 9.35597 9.03384 10.4249 8.83047C11.4938 8.62709 12.6018 8.73147 13.6086 9.13041C14.6156 9.52935 15.4761 10.2049 16.0817 11.0717C16.6872 11.9385 17.0103 12.9576 17.0103 14C17.0078 15.3972 16.4264 16.7365 15.3935 17.7243C14.3607 18.7123 12.9606 19.2685 11.4999 19.2709ZM11.4999 10.1042C10.6943 10.1042 9.90688 10.3327 9.23713 10.7608C8.56734 11.1888 8.04531 11.7973 7.73703 12.5092C7.42877 13.221 7.34811 14.0043 7.50527 14.76C7.66242 15.5158 8.05033 16.2099 8.61994 16.7548C9.18954 17.2997 9.91522 17.6707 10.7054 17.821C11.4954 17.9713 12.3143 17.8942 13.0586 17.5993C13.8028 17.3044 14.4389 16.8051 14.8864 16.1645C15.3339 15.5238 15.5728 14.7706 15.5728 14C15.5703 12.9675 15.1403 11.978 14.3771 11.2479C13.6138 10.5178 12.5794 10.1066 11.4999 10.1042Z" fill="black"/>
<path d="M11.5 7.58331C11.3102 7.58094 11.1287 7.50774 10.9945 7.37933C10.8602 7.2509 10.7837 7.07741 10.7812 6.89581V5.52081C10.7812 5.33848 10.857 5.16361 10.9918 5.03468C11.1265 4.90575 11.3094 4.83331 11.5 4.83331C11.6906 4.83331 11.8735 4.90575 12.0082 5.03468C12.143 5.16361 12.2188 5.33848 12.2188 5.52081V6.89581C12.2163 7.07741 12.1398 7.2509 12.0055 7.37933C11.8713 7.50774 11.6898 7.58094 11.5 7.58331Z" fill="black"/>
<path d="M11.5 23.1667C11.3102 23.1643 11.1287 23.0912 10.9945 22.9627C10.8602 22.8343 10.7837 22.6608 10.7812 22.4792V21.1042C10.7812 20.9219 10.857 20.747 10.9918 20.6181C11.1265 20.4891 11.3094 20.4167 11.5 20.4167C11.6906 20.4167 11.8735 20.4891 12.0082 20.6181C12.143 20.747 12.2188 20.9219 12.2188 21.1042V22.4792C12.2163 22.6608 12.1398 22.8343 12.0055 22.9627C11.8713 23.0912 11.6898 23.1643 11.5 23.1667Z" fill="black"/>
<path d="M20.3645 14.6875H18.927C18.7364 14.6875 18.5535 14.6151 18.4188 14.4861C18.284 14.3572 18.2083 14.1823 18.2083 14C18.2083 13.8177 18.284 13.6428 18.4188 13.5139C18.5535 13.3849 18.7364 13.3125 18.927 13.3125H20.3645C20.5551 13.3125 20.738 13.3849 20.8727 13.5139C21.0075 13.6428 21.0833 13.8177 21.0833 14C21.0833 14.1823 21.0075 14.3572 20.8727 14.4861C20.738 14.6151 20.5551 14.6875 20.3645 14.6875Z" fill="black"/>
<path d="M4.073 14.6875H2.6355C2.44488 14.6875 2.26205 14.6151 2.12727 14.4861C1.99248 14.3572 1.91675 14.1823 1.91675 14C1.91675 13.8177 1.99248 13.6428 2.12727 13.5139C2.26205 13.3849 2.44488 13.3125 2.6355 13.3125H4.073C4.26362 13.3125 4.44644 13.3849 4.58123 13.5139C4.71602 13.6428 4.79175 13.8177 4.79175 14C4.79175 14.1823 4.71602 14.3572 4.58123 14.4861C4.44644 14.6151 4.26362 14.6875 4.073 14.6875Z" fill="black"/>
<path d="M6.2291 9.64576C6.0442 9.63224 5.87219 9.54997 5.74993 9.41659L4.70535 8.49993C4.63676 8.43432 4.58236 8.35643 4.54523 8.27071C4.50811 8.185 4.48901 8.09313 4.48901 8.00034C4.48901 7.90756 4.50811 7.81569 4.54523 7.72997C4.58236 7.64426 4.63676 7.56637 4.70535 7.50076C4.77394 7.43515 4.85537 7.38312 4.94498 7.3476C5.03459 7.3121 5.13065 7.29382 5.22764 7.29382C5.32464 7.29382 5.42069 7.3121 5.5103 7.3476C5.59991 7.38312 5.68134 7.43515 5.74993 7.50076L6.70826 8.49993C6.82613 8.62598 6.89129 8.78915 6.89129 8.95826C6.89129 9.12737 6.82613 9.29054 6.70826 9.41659C6.58601 9.54997 6.414 9.63224 6.2291 9.64576Z" fill="black"/>
<path d="M17.7866 20.7008C17.6922 20.7012 17.5985 20.6836 17.5113 20.6489C17.4241 20.6144 17.3451 20.5634 17.2787 20.4992L16.2916 19.5C16.2276 19.3717 16.2067 19.2276 16.2318 19.0874C16.2569 18.9473 16.3268 18.8181 16.432 18.7175C16.537 18.6171 16.6721 18.5501 16.8187 18.5261C16.9651 18.502 17.1158 18.522 17.2499 18.5833L18.2945 19.5C18.4291 19.6289 18.5047 19.8036 18.5047 19.9858C18.5047 20.168 18.4291 20.3428 18.2945 20.4717C18.2306 20.5409 18.1526 20.597 18.0653 20.6364C17.978 20.6758 17.8831 20.6977 17.7866 20.7008Z" fill="black"/>
<path d="M16.7709 9.64576C16.586 9.63224 16.414 9.54997 16.2917 9.41659C16.1738 9.29054 16.1086 9.12737 16.1086 8.95826C16.1086 8.78915 16.1738 8.62598 16.2917 8.49993L17.25 7.50076C17.3885 7.36827 17.5764 7.29382 17.7723 7.29382C17.9682 7.29382 18.1561 7.36827 18.2946 7.50076C18.4331 7.63326 18.511 7.81297 18.511 8.00034C18.511 8.18772 18.4331 8.36743 18.2946 8.49993L17.25 9.41659C17.1277 9.54997 16.9557 9.63224 16.7709 9.64576Z" fill="black"/>
<path d="M5.21323 20.7008C5.1188 20.7012 5.02523 20.6836 4.93801 20.6489C4.85079 20.6144 4.77168 20.5634 4.70532 20.4992C4.57072 20.3703 4.49512 20.1955 4.49512 20.0133C4.49512 19.8311 4.57072 19.6564 4.70532 19.5275L5.7499 18.5833C5.88403 18.522 6.03471 18.502 6.1812 18.5261C6.3277 18.5501 6.4628 18.6171 6.5679 18.7175C6.673 18.8181 6.74293 18.9473 6.76806 19.0874C6.79319 19.2276 6.77229 19.3717 6.70823 19.5L5.7499 20.4992C5.6802 20.5668 5.59641 20.6198 5.50396 20.6545C5.41151 20.6893 5.31247 20.705 5.21323 20.7008Z" fill="black"/>
</svg>
