<svg width="105" height="141" viewBox="0 0 105 141" fill="none" xmlns="http://www.w3.org/2000/svg">
<g clip-path="url(#clip0_311_321)">
<path fill-rule="evenodd" clip-rule="evenodd" d="M2.86638 17.5906H18.6254V14.0908C18.6254 10.2124 20.1889 6.67822 22.7153 4.13086C25.2304 1.5835 28.7199 0 32.5492 0H71.6919C75.5212 0 79.0106 1.5835 81.5257 4.14233C84.0522 6.6897 85.6156 10.2239 85.6156 14.1023V17.6021H102.122C103.595 17.6021 105.623 19.0708 104.796 20.3101C98.7803 29.2832 94.022 40.0693 85.6156 45.6345V55.6633H102.122C103.595 55.6633 105.623 57.1321 104.796 58.3713C98.7803 67.356 94.0106 78.1421 85.6043 83.6958V93.7131H102.122C103.595 93.7131 105.623 95.1819 104.796 96.4211C98.7803 105.406 94.0106 116.203 85.6043 121.757V126.909C85.6043 130.788 84.0408 134.322 81.5144 136.869C78.988 139.428 75.5099 141.011 71.6806 141.011H32.5492C28.7199 141.011 25.2304 139.428 22.7153 136.869C20.1889 134.322 18.6254 130.788 18.6254 126.909V121.229C10.6836 115.538 6.03858 105.119 0.192661 96.4097C-0.634379 95.1704 1.39357 93.7017 2.86638 93.7017H18.6254V83.1565C10.6836 77.4766 6.03858 67.0691 0.192661 58.3599C-0.634379 57.1206 1.39357 55.6519 2.86638 55.6519H18.6254V45.1182C10.6836 39.4268 6.03858 29.0193 0.192661 20.3101C-0.634379 19.0823 1.39357 17.5906 2.86638 17.5906Z" fill="black"/>
<path fill-rule="evenodd" clip-rule="evenodd" d="M32.5491 3.86694H71.6918C77.2432 3.86694 81.7976 8.46826 81.7976 14.1023V126.898C81.7976 132.52 77.2545 137.133 71.6918 137.133H32.5491C26.9977 137.133 22.4434 132.532 22.4434 126.898V14.1023C22.4434 8.46826 26.9864 3.86694 32.5491 3.86694Z" fill="#262626"/>
<path fill-rule="evenodd" clip-rule="evenodd" d="M52.1265 55.0781C60.5442 55.0781 67.3531 61.9858 67.3531 70.5C67.3531 79.0142 60.5328 85.9219 52.1265 85.9219C43.7088 85.9219 36.8999 79.0142 36.8999 70.5C36.8886 61.9858 43.7088 55.0781 52.1265 55.0781Z" fill="#FFD15C"/>
<path fill-rule="evenodd" clip-rule="evenodd" d="M52.1265 14.2056C60.5442 14.2056 67.3531 21.1133 67.3531 29.6274C67.3531 38.1531 60.5328 45.0493 52.1265 45.0493C43.7088 45.0493 36.8999 38.1416 36.8999 29.6274C36.8886 21.1018 43.7088 14.2056 52.1265 14.2056Z" fill="#EF6657"/>
<path fill-rule="evenodd" clip-rule="evenodd" d="M52.1265 95.9622C60.5442 95.9622 67.3531 102.87 67.3531 111.384C67.3531 119.91 60.5328 126.806 52.1265 126.806C43.7088 126.806 36.8999 119.898 36.8999 111.384C36.8886 102.858 43.7088 95.9622 52.1265 95.9622Z" fill="#72BD39"/>
</g>
<defs>
<clipPath id="clip0_311_321">
<rect width="105" height="141" fill="white"/>
</clipPath>
</defs>
</svg>
