<svg width="132" height="129" viewBox="0 0 132 129" fill="none" xmlns="http://www.w3.org/2000/svg">
<path d="M66 5V11" stroke="#F97612" stroke-width="10" stroke-linecap="round"/>
<path d="M66 118V124" stroke="#F97612" stroke-width="10" stroke-linecap="round"/>
<path d="M127 65H121" stroke="#F97612" stroke-width="10" stroke-linecap="round"/>
<path d="M11 65H5" stroke="#F97612" stroke-width="10" stroke-linecap="round"/>
<path d="M109 22L107 25" stroke="#F97612" stroke-width="10" stroke-linecap="round"/>
<path d="M25 104L23 107" stroke="#F97612" stroke-width="10" stroke-linecap="round"/>
<path d="M109 107L107 104" stroke="#F97612" stroke-width="10" stroke-linecap="round"/>
<path d="M25 25L23 22" stroke="#F97612" stroke-width="10" stroke-linecap="round"/>
<path d="M31.1054 52.6667C29.7419 56.3681 29 60.3506 29 64.5C29 84.1061 45.5655 100 66 100C86.4345 100 103 84.1061 103 64.5C103 44.8939 86.4345 29 66 29C61.6753 29 57.5245 29.7118 53.6667 31.02" stroke="#FF9F2A" stroke-width="10" stroke-linecap="round"/>
</svg>
