<svg width="54" height="158" viewBox="0 0 54 158" fill="none" xmlns="http://www.w3.org/2000/svg">
<path d="M37.4844 114.777C37.582 114.251 37.6602 113.724 37.6602 113.179V56.0166H15.5313V113.161C15.5313 113.706 15.6094 114.232 15.707 114.759C9.00781 118.301 4.47656 124.986 4.47656 132.651C4.47656 144.021 14.3789 153.231 26.6055 153.231C38.832 153.231 48.7344 144.021 48.7344 132.651C48.7149 124.986 44.1836 118.301 37.4844 114.777Z" fill="#F59558"/>
<path d="M42.0742 112.652V15.3836C42.0742 7.4459 35.1211 0.979492 26.5859 0.979492C18.0508 0.979492 11.0977 7.4459 11.0977 15.3836V112.634C4.22266 117.248 0.0429688 124.713 0.0429688 132.651C0.0429688 146.274 11.957 157.336 26.5859 157.336C41.2148 157.336 53.1484 146.292 53.1484 132.669C53.1484 124.731 48.9687 117.266 42.0742 112.652ZM26.5859 149.126C16.8203 149.126 8.89062 141.751 8.89062 132.669C8.89062 126.838 12.2891 121.389 17.7383 118.428C19.1055 117.702 19.9453 116.339 19.9453 114.868V107.457H22.1523C23.3828 107.457 24.3594 106.531 24.3594 105.405C24.3594 104.26 23.3633 103.352 22.1523 103.352H19.9453V95.1238H22.1523C23.3828 95.1238 24.3594 94.1975 24.3594 93.0713C24.3594 91.927 23.3633 91.0188 22.1523 91.0188H19.9453V82.7904H22.1523C23.3828 82.7904 24.3594 81.8641 24.3594 80.7379C24.3594 79.5936 23.3633 78.6853 22.1523 78.6853H19.9453V70.457H22.1523C23.3828 70.457 24.3594 69.5307 24.3594 68.4045C24.3594 67.2602 23.3633 66.352 22.1523 66.352H19.9453V58.1236H22.1523C23.3828 58.1236 24.3594 57.1973 24.3594 56.0711C24.3594 54.9268 23.3633 54.0186 22.1523 54.0186H19.9453V45.7902H22.1523C23.3828 45.7902 24.3594 44.8639 24.3594 43.7377C24.3594 42.5934 23.3633 41.6852 22.1523 41.6852H19.9453V33.4568H22.1523C23.3828 33.4568 24.3594 32.5305 24.3594 31.4043C24.3594 30.26 23.3633 29.3518 22.1523 29.3518H19.9453V21.0508H22.1523C23.3828 21.0508 24.3594 20.1244 24.3594 18.9982C24.3594 17.8539 23.3633 16.9457 22.1523 16.9457H19.9453V15.4018C19.9453 12.0051 22.9141 9.22598 26.5859 9.22598C30.2383 9.22598 33.2266 11.9869 33.2266 15.4018V114.886C33.2266 116.358 34.0664 117.72 35.4336 118.446C40.9023 121.389 44.2812 126.838 44.2812 132.687C44.3008 141.751 36.3516 149.126 26.5859 149.126Z" fill="#211F1E"/>
</svg>
